:FULLY-SPECIFIED
:DEGREES
1298
root 4.64395 16.6142 -2.84125 -110.483 -87.4218 128.867
lowerback -7.67981 2.3002 3.70425
upperback -5.70629 2.6584 -1.48669
thorax -1.36832 1.12326 -3.43897
lowerneck -15.2853 -1.6201 1.45933
upperneck 20.4864 -2.6988 -0.448238
head 8.91326 -1.27173 -0.731816
rclavicle 3.18055e-015 1.92821e-014
rhumerus -27.544 1.72202 -81.6322
rradius 37.0254
rwrist 13.5562
rhand -26.3018 -6.22754
rfingers 7.12502
rthumb 0.254234 -36.2071
lclavicle 3.18055e-015 1.92821e-014
lhumerus -46.7038 -1.8167 85.284
lradius 33.7342
lwrist -8.30071
lhand -35.5607 -1.87816
lfingers 7.12502
lthumb -8.68593 27.9231
rfemur -20.1578 12.1914 22.9927
rtibia 21.151
rfoot -17.7753 -21.4475
rtoes -5.12549
lfemur -43.4722 -9.25932 -20.8374
ltibia 30.4057
lfoot -12.2278 10.2051
ltoes -15.2302
1299
root 4.66106 16.6135 -2.84062 -109.439 -87.4984 127.948
lowerback -7.76706 2.30882 3.73544
upperback -5.73466 2.66292 -1.47794
thorax -1.34864 1.12377 -3.44463
lowerneck -15.3505 -1.62288 1.44167
upperneck 20.5265 -2.70159 -0.439879
head 8.93934 -1.27284 -0.727624
rclavicle 2.46493e-014 -2.54444e-014
rhumerus -27.3269 2.15513 -81.707
rradius 37.4249
rwrist 13.1796
rhand -26.3561 -6.23074
rfingers 7.12502
rthumb 0.201835 -36.2104
lclavicle 2.46493e-014 -2.54444e-014
lhumerus -46.8868 -1.68074 85.1639
lradius 33.7177
lwrist -8.41977
lhand -35.5443 -1.6833
lfingers 7.12502
lthumb -8.6701 28.1187
rfemur -19.3072 12.0531 23.1289
rtibia 20.2293
rfoot -17.6346 -21.3507
rtoes -5.75292
lfemur -43.2914 -10.8483 -19.8937
ltibia 27.414
lfoot -11.6142 11.7182
ltoes -15.9186
1300
root 4.67311 16.6167 -2.8415 -110.518 -87.5256 129.111
lowerback -7.86141 2.35096 3.75284
upperback -5.72965 2.71372 -1.47307
thorax -1.28659 1.14998 -3.4421
lowerneck -15.3109 -1.62699 1.40791
upperneck 20.4107 -2.70458 -0.391384
head 8.89359 -1.27158 -0.703993
rclavicle 1.03368e-014 7.95139e-016
rhumerus -27.1266 2.52222 -81.7765
rradius 37.8022
rwrist 12.8716
rhand -26.5143 -6.26576
rfingers 7.12502
rthumb 0.0490163 -36.2455
lclavicle 1.03368e-014 7.95139e-016
lhumerus -47.0401 -1.52999 85.0174
lradius 33.7319
lwrist -8.54075
lhand -35.502 -1.77116
lfingers 7.12502
lthumb -8.6292 28.0325
rfemur -18.4126 11.9361 23.2685
rtibia 19.3029
rfoot -17.5135 -21.2922
rtoes -6.32089
lfemur -43.1649 -12.6405 -18.6841
ltibia 24.5909
lfoot -10.8199 13.703
ltoes -15.8964
1301
root 4.68626 16.6184 -2.84132 -111.758 -87.6863 130.383
lowerback -7.9109 2.37174 3.87736
upperback -5.71006 2.73264 -1.44162
thorax -1.23382 1.15833 -3.47579
lowerneck -15.3352 -1.62681 1.47455
upperneck 20.3661 -2.71923 -0.390321
head 8.88172 -1.2728 -0.716145
rclavicle -2.94201e-014 4.77083e-015
rhumerus -26.9462 2.79096 -81.8472
rradius 38.2143
rwrist 12.6054
rhand -26.474 -6.15762
rfingers 7.12502
rthumb 0.0879148 -36.1373
lclavicle -2.94201e-014 4.77083e-015
lhumerus -47.1453 -1.46011 84.9006
lradius 33.712
lwrist -8.46405
lhand -35.4058 -1.728
lfingers 7.12502
lthumb -8.53637 28.0795
rfemur -17.4806 11.7936 23.5492
rtibia 18.4468
rfoot -17.3211 -20.9711
rtoes -6.13606
lfemur -43.0617 -14.7924 -17.0658
ltibia 21.9807
lfoot -9.99415 16.1755
ltoes -15.7136
1302
root 4.69843 16.6135 -2.84095 -112.59 -87.8482 131.232
lowerback -7.90962 2.38818 3.98953
upperback -5.70506 2.74846 -1.41576
thorax -1.22468 1.16414 -3.51073
lowerneck -15.4912 -1.65388 1.51768
upperneck 20.4542 -2.76492 -0.418612
head 8.93897 -1.29247 -0.741282
rclavicle 3.18055e-015 -1.82882e-014
rhumerus -26.8261 3.13206 -81.941
rradius 38.6053
rwrist 12.1792
rhand -26.6787 -6.11834
rfingers 7.12502
rthumb -0.109786 -36.0981
lclavicle 3.18055e-015 -1.82882e-014
lhumerus -47.2622 -1.45277 84.8324
lradius 33.6981
lwrist -8.43823
lhand -35.5356 -1.84786
lfingers 7.12502
lthumb -8.66166 27.9544
rfemur -16.5175 11.5544 23.834
rtibia 17.5422
rfoot -17.1643 -20.7975
rtoes -6.7309
lfemur -43.1189 -17.0768 -15.2894
ltibia 19.7248
lfoot -9.35599 18.9666
ltoes -15.0294
1303
root 4.70971 16.6092 -2.83626 -110.48 -87.8176 129.2
lowerback -8.00815 2.36779 3.86635
upperback -5.71529 2.72316 -1.4189
thorax -1.18806 1.15465 -3.44333
lowerneck -15.4312 -1.66817 1.51286
upperneck 20.3762 -2.78668 -0.390181
head 8.9015 -1.30045 -0.73175
rclavicle 2.94201e-014 6.55989e-015
rhumerus -26.7251 3.44024 -81.9768
rradius 38.9787
rwrist 12.0259
rhand -26.5492 -6.15733
rfingers 7.12502
rthumb 0.0153177 -36.1371
lclavicle 2.94201e-014 6.55989e-015
lhumerus -47.3575 -1.4045 84.8165
lradius 33.6507
lwrist -8.24142
lhand -35.5959 -1.98245
lfingers 7.12502
lthumb -8.71985 27.8174
rfemur -15.666 11.2859 23.8468
rtibia 16.7573
rfoot -17.0176 -20.5577
rtoes -7.76724
lfemur -43.3653 -19.4205 -13.6775
ltibia 17.8043
lfoot -8.98733 22.0401
ltoes -14.5755
1304
root 4.71903 16.5986 -2.83663 -115.005 -88.0586 133.689
lowerback -7.97998 2.37051 3.9999
upperback -5.72863 2.71985 -1.29072
thorax -1.21832 1.15031 -3.38698
lowerneck -15.358 -1.6532 1.53769
upperneck 20.4026 -2.77148 -0.399544
head 8.89683 -1.29333 -0.736724
rclavicle -7.95139e-016 2.98177e-015
rhumerus -26.6812 3.74786 -82.0331
rradius 39.2898
rwrist 11.7688
rhand -26.6921 -6.16708
rfingers 7.12502
rthumb -0.122686 -36.1468
lclavicle -7.95139e-016 2.98177e-015
lhumerus -47.5102 -1.29148 84.7536
lradius 33.6516
lwrist -8.33105
lhand -35.4572 -1.72952
lfingers 7.12502
lthumb -8.58602 28.0759
rfemur -14.802 11.0361 24.2894
rtibia 16.162
rfoot -16.882 -20.2651
rtoes -8.60419
lfemur -43.6702 -21.8581 -11.4928
ltibia 16.2046
lfoot -9.19135 25.6281
ltoes -13.3587
